<?xml version="1.0" encoding="UTF-8"?>
<svg id="Calque_1" data-name="Calque 1" xmlns="http://www.w3.org/2000/svg" viewBox="0 0 879.63 461.43">
  <defs>
    <style>
      .cls-1 {
        fill: #1d1d1b;
        stroke: #1d1d1b;
        stroke-miterlimit: 10;
        stroke-width: 1.96px;
      }
    </style>
  </defs>
  <g>
    <path d="m263.98,176.18h-113.81v82.15c0,6.85,10.27,7.42,10.27,11.12,0,1.71-1.43,2.85-2.85,2.85h-31.66c-1.43,0-2.85-1.14-2.85-2.85,0-3.71,9.98-4.28,9.98-11.12V102.3c0-6.85-9.98-7.42-9.98-11.41,0-1.43,1.43-2.57,2.85-2.57h31.66c1.43,0,2.85,1.14,2.85,2.57,0,3.99-10.27,4.56-10.27,11.41v66.46h113.81v-66.46c0-6.85-9.98-7.42-9.98-11.41,0-1.43,1.43-2.57,2.85-2.57h31.66c1.43,0,2.85,1.14,2.85,2.57,0,3.99-10.27,4.56-10.27,11.41v156.03c0,6.85,10.27,7.42,10.27,11.12,0,1.71-1.43,2.85-2.85,2.85h-31.66c-1.43,0-2.85-1.14-2.85-2.85,0-3.71,9.98-4.28,9.98-11.12v-82.15Z"/>
    <path d="m320.73,206.7c0-39.36,28.24-67.89,66.75-67.89s66.75,28.24,66.75,67.89-28.52,68.17-66.75,68.17-66.75-28.52-66.75-68.17Zm117.23,4.85c0-35.66-22.25-65.04-51.63-65.04-27.67,0-49.35,22.25-49.35,55.62,0,35.65,21.96,64.75,51.63,64.75,27.38,0,49.35-21.96,49.35-55.34Zm-20.54-82.72c-1.14,0-2.28-.57-3.42-1.71l-26.53-27.38-26.53,27.38c-1.14,1.14-2.28,1.71-3.42,1.71-1.71,0-2.85-1.14-2.85-2.85,0-.86.28-2,1.14-3.14l25.39-33.66c1.14-1.71,2.85-2.28,4.56-2.28h3.71c1.43,0,2.85.57,4.28,2.28l25.39,33.66c.86,1.14,1.14,2.28,1.14,3.14,0,1.71-1.14,2.85-2.85,2.85Z"/>
    <path d="m495.86,237.79v-80.15c0-14.26-7.99-9.7-23.39-10.27-2.85,0-6.56,1.14-5.71-2.85.28-2.85,1.43-2.85,5.42-3.14,20.25-.86,31.38-14.55,35.08-49.63.29-2,.86-3.42,2.28-3.42,2,0,2.28,1.43,2.28,3.99,0,16.54-2,38.51,0,43.93,3.42,7.42,17.4,5.42,29.95,5.42,5.7,0,9.13-1.71,9.13,2.85,0,3.99-2,3.99-8.56,3.71-4.56-.29-27.1-.86-29.95-.86v92.42c0,17.4,3.14,27.38,14.26,27.38,9.98,0,16.83-6.85,17.4-25.1.28-8.27.28-12.26,3.14-12.26,1.14,0,2.57.57,2.57,2.85,0,23.96-7.42,41.93-27.67,41.93-16.26,0-26.24-11.41-26.24-36.8Z"/>
    <path d="m590.56,236.65c9.41,17.69,26.24,29.38,46.49,29.38,24.25,0,45.07-16.54,55.05-40.5.86-2,2-2,2.85-2,1.71,0,3.14,1.43,3.14,3.71,0,5.7-17.97,47.35-64.75,47.35-38.51,0-67.03-28.24-67.03-67.89s27.1-67.89,64.46-67.89c27.95,0,48.49,16.26,48.49,34.51,0,26.24-63.89,53.91-82.43,62.18l-6.28,1.14Zm-8.27-34.8c0,10.55,2,20.25,5.71,29.09,33.37-13.12,77.3-39.93,78.16-56.76.57-13.41-15.12-29.09-34.52-29.09-26.81,0-49.35,23.39-49.35,56.76Z"/>
    <path d="m746,258.61c0,8.84,7.42,8.84,7.42,11.12,0,2-3.42,4.85-8.84,4.85-6.85,0-14.83-5.7-14.83-17.11V92.32c0-6.85-10.27-7.42-10.27-11.41,0-1.43,1.43-2.28,3.42-2.85,10.27-2.85,16.54-7.7,19.97-7.7,2.57,0,3.71,2.28,3.71,5.99,0,9.41-.57,18.83-.57,28.24v154.03Z"/>
    <path d="m2.85,461.43c-1.43,0-2.85-1.14-2.85-2.57,0-3.99,10.27-4.56,10.27-11.41v-156.03c0-6.85-10.27-7.42-10.27-11.41,0-1.43,1.43-2.57,2.85-2.57h64.46c47.06,0,76.73,23.39,76.73,59.05s-29.67,60.47-77.01,60.47H27.38v50.49c0,6.85,10.27,7.42,10.27,11.41,0,1.43-1.71,2.57-2.85,2.57H2.85Zm63.04-176.56H27.38v100.12c.29,7.7,3.71,5.71,38.51,5.71,37.94,0,60.47-22.25,60.47-54.2s-22.53-51.63-60.47-51.63Z"/>
    <path d="m280.38,457.43c-20.82,0-27.38-35.66-29.38-52.48-4.56,31.95-25.39,56.48-51.91,56.48-18.83,0-39.93-11.98-39.93-40.22,0-33.37,29.66-45.64,55.91-45.64,12.84,0,24.53,2.85,31.95,7.7-2.57-11.98-5.99-24.25-11.41-34.23-5.13-10.84-13.41-15.97-25.39-15.97-7.7,0-16.83,2.57-26.53,8.27-13.98,8.56-20.54,20.25-23.39,20.25-1.43,0-2-3.14-2-11.41,0-11.12,1.71-14.26,3.99-14.26,3.42,0,8.84,7.7,12.55,5.42,17.97-13.69,37.08-15.4,43.93-15.4,61.9,0,39.93,131.21,70.17,124.36,2.85-.57,4.56,3.14,1.43,4.56-3.71,1.71-6.85,2.57-9.98,2.57Zm-59.05-76.16c-22.53,0-47.06,12.27-47.06,38.51,0,16.26,9.41,32.52,31.38,32.52,27.95-.29,42.5-37.08,42.21-63.89-6.85-4.56-16.54-7.13-26.53-7.13Z"/>
    <path d="m370.5,336.77c-21.96,0-37.65,32.52-37.65,66.75v43.93c0,6.85,9.98,7.42,9.98,11.41,0,1.43-1.43,2.57-2.85,2.57h-30.81c-1.43,0-2.85-1.14-2.85-2.57,0-3.99,10.27-4.56,10.27-11.41v-95.27c0-6.85-10.27-7.42-10.27-11.41,0-1.71,1.43-2.28,3.42-2.85,10.27-2.85,16.26-7.7,19.97-7.7,2.57,0,3.71,2.28,3.71,5.71,0,9.98-.57,29.95-.57,39.93,7.99-23.68,19.4-47.63,40.5-47.92,11.69-.28,20.54,6.85,20.54,14.83,0,6.85-8.56,13.41-13.12,13.41-6.56,0,6.56-19.4-10.27-19.4Z"/>
    <path d="m444.09,447.45c0,6.85,10.27,7.42,10.27,11.41,0,1.43-1.71,2.57-2.85,2.57h-31.09c-1.14,0-2.85-1.14-2.85-2.85,0-3.71,10.27-4.28,10.27-11.12v-95.27c0-6.85-10.27-7.42-10.27-11.41,0-1.71,1.43-2.28,3.42-2.85,10.27-2.85,16.26-7.7,19.97-7.7,2.57,0,3.42,2.28,3.42,5.99,0,5.13-.28,7.42-.28,14.55v96.7Zm2.57-141.3c0,7.13-6.56,14.83-13.98,14.83-5.71,0-9.98-5.71-9.98-11.13,0-7.13,5.99-15.12,13.69-15.12,5.42,0,10.27,4.56,10.27,11.41Z"/>
    <path d="m608.1,458.86c0,1.43-1.43,2.57-2.85,2.57h-30.81c-1.43,0-2.85-1.14-2.85-2.57,0-3.99,10.27-4.56,10.27-11.41v-70.17c0-23.68-11.12-39.93-30.81-39.93-25.96,0-48.78,32.23-48.78,60.47v49.63c0,6.85,10.27,7.42,10.27,11.41,0,1.43-1.71,2.57-2.85,2.57h-31.09c-1.14,0-2.85-1.14-2.85-2.57,0-3.99,10.27-4.56,10.27-11.41v-95.27c0-6.85-10.27-7.42-10.27-11.41,0-1.71,1.43-2.28,3.42-2.85,9.7-2.85,16.26-7.7,19.97-7.7,2.57,0,3.71,2.28,3.71,5.99,0,9.98-.57,25.96-.57,35.94,9.7-22.53,30.23-44.21,56.76-44.21,23.39,0,38.22,16.54,39.08,45.07,7.99-24.82,29.38-45.07,55.62-45.07,24.53,0,39.93,17.4,39.93,47.92v71.6c0,6.85,9.98,7.42,9.98,11.41,0,1.43-1.43,2.57-2.85,2.57h-30.81c-1.43,0-2.85-1.14-2.85-2.57,0-3.99,10.27-4.56,10.27-11.41v-69.88c0-23.96-11.12-40.22-30.81-40.22-25.96,0-46.78,30.52-48.49,58.47v51.63c0,6.85,9.98,7.42,9.98,11.41Z"/>
    <path d="m782.94,361.02c0-24.53,27.1-35.94,51.34-35.94s45.35,13.12,43.93,31.95c-.57,7.7-9.41,14.83-14.83,14.55-3.99,0-9.7-3.99-9.7-6.56,0-3.71,15.69-1.14,15.97-7.98.86-16.26-11.98-25.39-35.08-25.39-24.53,0-36.8,10.55-36.8,27.95,0,33.94,81.86,22.25,81.86,66.18,0,26.24-29.38,35.66-51.91,35.66-29.09,0-48.21-15.12-50.49-30.24-1.43-9.98,2.85-17.97,8.84-20.25,4.57-1.43,19.4,0,19.11,2.85-.57,3.71-17.97,5.42-17.11,17.4.86,11.41,15.69,23.68,40.22,23.68s37.08-10.84,37.08-27.1c0-33.09-82.43-24.25-82.43-66.75Z"/>
    <path d="m748.44,447.45c0,6.85,10.27,7.42,10.27,11.41,0,1.43-1.71,2.57-2.85,2.57h-31.09c-1.14,0-2.85-1.14-2.85-2.85,0-3.71,10.27-4.28,10.27-11.12v-95.27c0-6.85-10.27-7.42-10.27-11.41,0-1.71,1.43-2.28,3.42-2.85,10.27-2.85,16.26-7.7,19.97-7.7,2.57,0,3.42,2.28,3.42,5.99,0,5.13-.28,7.42-.28,14.55v96.7Zm2.57-141.3c0,7.13-6.56,14.83-13.98,14.83-5.71,0-9.98-5.71-9.98-11.13,0-7.13,5.99-15.12,13.69-15.12,5.42,0,10.27,4.56,10.27,11.41Z"/>
  </g>
  <g>
    <polygon class="cls-1" points="314.67 3.04 320.51 20.25 339.41 20.25 324.12 30.89 329.96 48.1 314.67 37.46 299.38 48.1 305.22 30.89 289.93 20.25 308.83 20.25 314.67 3.04"/>
    <polygon class="cls-1" points="377.24 3.04 383.08 20.25 401.98 20.25 386.69 30.89 392.53 48.1 377.24 37.46 361.95 48.1 367.79 30.89 352.5 20.25 371.4 20.25 377.24 3.04"/>
    <polygon class="cls-1" points="439.82 3.04 445.66 20.25 464.56 20.25 449.27 30.89 455.11 48.1 439.82 37.46 424.53 48.1 430.37 30.89 415.08 20.25 433.98 20.25 439.82 3.04"/>
    <polygon class="cls-1" points="502.39 3.04 508.23 20.25 527.13 20.25 511.84 30.89 517.68 48.1 502.39 37.46 487.1 48.1 492.94 30.89 477.65 20.25 496.55 20.25 502.39 3.04"/>
    <polygon class="cls-1" points="564.96 3.04 570.8 20.25 589.7 20.25 574.41 30.89 580.25 48.1 564.96 37.46 549.67 48.1 555.51 30.89 540.22 20.25 559.12 20.25 564.96 3.04"/>
  </g>
</svg>